<svg width="16" height="16" viewBox="0 0 16 16" fill="none" xmlns="http://www.w3.org/2000/svg">
<rect width="16" height="16" rx="8" fill="#1794F4"/>
<path d="M4.99257 11.2184C4.66497 11.2184 4.3586 11.1517 4.07347 11.0182C3.7944 10.8847 3.56084 10.6633 3.37277 10.3539C3.1847 10.0445 3.06034 9.63197 2.99967 9.1163L2.56287 5.085L4.72867 4.9485C4.65587 5.82817 4.5952 6.54707 4.54667 7.1052C4.49814 7.66333 4.46174 8.10317 4.43747 8.4247C4.4132 8.74017 4.395 8.9707 4.38287 9.1163C4.37074 9.25583 4.36164 9.34683 4.35557 9.3893C4.35557 9.43177 4.35557 9.45907 4.35557 9.4712C4.35557 9.84733 4.44354 10.1143 4.61947 10.272C4.80147 10.4297 5.04414 10.5086 5.34747 10.5086C5.51734 10.5086 5.68417 10.4752 5.84797 10.4085C6.01784 10.3418 6.15737 10.2174 6.26657 10.0354C6.38184 9.8534 6.44251 9.59557 6.44857 9.2619L6.53047 5.0395L7.44047 4.994L7.16747 9.271C7.1432 9.67747 7.0613 10.0111 6.92177 10.272C6.78224 10.5268 6.6063 10.724 6.39397 10.8635C6.18164 10.997 5.95414 11.088 5.71147 11.1365C5.4688 11.1911 5.22917 11.2184 4.99257 11.2184ZM9.5361 11.1365L8.4896 10.8817L10.255 8.0607L8.6716 5.2033L10.7737 4.9485L11.5745 7.1962L12.6119 4.9485L13.6584 5.1942L11.893 8.0061L13.6857 10.8635L11.5836 11.1274L10.6008 8.8251L9.5361 11.1365Z" fill="white"/>
</svg>
